# Blender v2.82 (sub 7) OBJ File: 'scene.blend'
# www.blender.org
o Plane.001
v 1.000000 -1.000000 0.00
v -1.00000 -1.000000 0.00
v  1.000000 1.000000 0.00
v -1.000000 1.000000 0.00
vt 0.98 0.000000
vt 0.000000 0.000000
vt 0.98 0.98
vt 0.000000 0.98
vn 0.0000 -0.0000 -1.0000
s off
f 2/2/1 3/3/1 1/1/1
f 2/2/1 4/4/1 3/3/1
o Plane.002
v 0.000000 -1.000000 -1.0000
v 0.000000 -1.000000 1.00000
v 0.000000 1.000000 -1.00000
v 0.000000 1.000000 1.000000
vt 0.98 0.000000
vt 0.000000 0.98
vt 0.000000 0.000000
vt 0.98 0.98
vn -1.0000 0.0000 -0.0000
s off
f 6/5/2 7/6/2 5/7/2
f 6/5/2 8/8/2 7/6/2
